<svg xmlns="http://www.w3.org/2000/svg" xmlns:xlink="http://www.w3.org/1999/xlink" viewBox="0,0,256,256" width="20px" height="20px"><g fill="#ffffff" fill-rule="nonzero" stroke="none" stroke-width="1" stroke-linecap="butt" stroke-linejoin="miter" stroke-miterlimit="10" stroke-dasharray="" stroke-dashoffset="0" font-family="none" font-weight="none" font-size="none" text-anchor="none" style="mix-blend-mode: normal"><g transform="scale(5.33333,5.33333)"><path d="M27.68945,2.03711c-3.27921,0 -6.06231,1.01535 -7.9375,3.05273c-1.87519,2.03738 -2.75391,4.943 -2.75391,8.41016v3.5h-3.48047c-1.92765,0 -3.51908,1.6048 -3.5,3.5332l0.0293,3.00391c0,0.00065 0,0.0013 0,0.00195c0.02251,1.9016 1.60033,3.46658 3.50391,3.46484l3.44922,-0.00195v16.49805c0,1.91495 1.58505,3.5 3.5,3.5h4c1.91495,0 3.5,-1.58505 3.5,-3.5v-16.5h3.0957c1.76377,0 3.27167,-1.3437 3.47656,-3.0957l0.34961,-3c0.23854,-2.05355 -1.40822,-3.9043 -3.47656,-3.9043h-3.42578l0.04297,-3.28711c0.00004,-0.00651 0.00004,-0.01302 0,-0.01953c0,-0.68584 0.52119,-1.20703 1.20703,-1.20703h2.9082c1.55816,0 2.85352,-1.29536 2.85352,-2.85352v-4.57031c0,-1.46562 -1.14016,-2.7122 -2.59766,-2.84375c-0.0013,0 -0.0026,0 -0.00391,0c-0.28437,-0.02488 -2.25178,-0.18164 -4.74023,-0.18164zM27.68945,5.03711c2.27781,0 4.32374,0.16364 4.3418,0.16406v4.28516h-2.76172c-2.30616,0 -4.20703,1.90087 -4.20703,4.20703l-0.0625,4.78711c-0.00518,0.40119 0.15056,0.78773 0.43242,1.07326c0.28186,0.28553 0.66636,0.44626 1.06758,0.44627h4.94531c0.32566,0 0.53355,0.23614 0.49609,0.55859l-0.34766,2.99805c-0.03111,0.266 -0.23182,0.44336 -0.49805,0.44336h-4.5957c-0.82839,0.00008 -1.49992,0.67161 -1.5,1.5v18c0,0.29505 -0.20496,0.5 -0.5,0.5h-4c-0.29504,0 -0.5,-0.20495 -0.5,-0.5v-18c-0.00008,-0.82839 -0.67161,-1.49992 -1.5,-1.5l-4.95117,0.00391c-0.00065,0 -0.0013,0 -0.00195,0c-0.28929,0.00026 -0.49494,-0.20549 -0.5,-0.49805l-0.0293,-3.00195c-0.00287,-0.29559 0.20365,-0.50391 0.5,-0.50391h4.98047c0.82839,-0.00008 1.49992,-0.67161 1.5,-1.5v-5c0,-2.96584 0.73383,-5.04159 1.96289,-6.37695c1.22906,-1.33537 3.04073,-2.08594 5.72852,-2.08594z"></path></g></g></svg>