<svg xmlns="http://www.w3.org/2000/svg" xmlns:xlink="http://www.w3.org/1999/xlink" viewBox="0,0,256,256" width="20px" height="20px"><g fill="#ffffff" fill-rule="nonzero" stroke="none" stroke-width="1" stroke-linecap="butt" stroke-linejoin="miter" stroke-miterlimit="10" stroke-dasharray="" stroke-dashoffset="0" font-family="none" font-weight="none" font-size="none" text-anchor="none" style="mix-blend-mode: normal"><g transform="scale(5.12,5.12)"><path d="M26.10547,2c-6.28125,0 -9.94922,2.22266 -11.89844,4.89063c-1.94922,2.66797 -2.20703,5.62891 -2.20703,7.10938c0,2.24219 0.71484,4.70313 2.34375,6.65625c1.62891,1.95703 4.21484,3.34375 7.65625,3.34375c0.13672,0 0.41016,-0.00781 0.58984,0c-0.11328,0.35938 -0.25781,0.6875 -0.25781,1.13672c0,1.28906 0.35938,2.23438 0.83984,3.05078c-3.10156,0.19531 -6.28906,0.83203 -8.93359,2.26563c-3.16406,1.71484 -5.58203,4.52734 -5.58203,8.30078c0,1.51953 0.61719,3.79688 2.59375,5.75781c1.97656,1.96094 5.28906,3.48828 10.44531,3.48828c11.73438,0 15.75,-7.41016 15.75,-11.91016c0,-4.09375 -2.25391,-6.62109 -4.30078,-8.35937c-1.02344,-0.87109 -2.00391,-1.58594 -2.66016,-2.22656c-0.66016,-0.64062 -0.93359,-1.10937 -0.93359,-1.59375c0,-0.63281 0.21875,-1.05859 0.68359,-1.60937c0.46484,-0.54687 1.18359,-1.14062 1.95703,-1.88281c1.54688,-1.48828 3.25,-3.71094 3.25,-7.52734c0,-2.70312 -0.91406,-4.62891 -2.01562,-5.89062h0.57422c0.26563,0 0.51953,-0.10547 0.70703,-0.29297l3,-3c0.28516,-0.28516 0.37109,-0.71484 0.21484,-1.08984c-0.15234,-0.375 -0.51562,-0.61719 -0.92187,-0.61719zM26.10547,4h8.48047l-1,1h-3.58594c-0.54687,0.00781 -0.98437,0.45313 -0.98437,1c0,0.54688 0.4375,0.99219 0.98438,1c-0.04297,0 0.28906,0.05078 0.64844,0.24219c0.35938,0.1875 0.79688,0.5 1.21094,0.95313c0.82422,0.90625 1.58203,2.35547 1.58203,4.69531c0,3.26172 -1.23828,4.73828 -2.64062,6.08594c-0.69922,0.67188 -1.44922,1.28125 -2.08984,2.03516c-0.64062,0.75 -1.16016,1.72266 -1.16016,2.89844c0,1.24609 0.71484,2.23047 1.53906,3.02734c0.82031,0.79688 1.8125,1.51172 2.75781,2.31641c1.89844,1.61328 3.59766,3.44531 3.59766,6.83594c0,3.33594 -2.83984,9.91016 -13.75,9.91016c-4.76953,0 -7.47656,-1.36328 -9.03906,-2.91016c-1.55859,-1.54687 -2,-3.39062 -2,-4.33594c0,-2.94531 1.77344,-5.04687 4.53516,-6.54297c0.47656,-0.25781 1.08594,-0.36328 1.60547,-0.57422c-0.32812,0.27734 -0.80078,0.50391 -1.05859,0.80859c-1.34375,1.58203 -1.70312,3.33984 -1.70703,4.58594c-0.01953,2.89063 1.85547,4.93359 4.11328,5.96875c2.25781,1.03125 4.9375,1.24219 7.15234,0.79688c2.65625,-0.53125 4.39063,-1.75781 5.39844,-3.11328c1.00781,-1.35937 1.30469,-2.78125 1.30469,-3.78125c0,-4.10937 -3.61719,-6.42969 -5.32031,-7.70312c-0.10937,-0.08594 -0.23828,-0.14453 -0.37109,-0.17578c-0.10937,-0.02344 -0.19922,0 -0.30859,-0.01953c0,-0.26562 -0.10547,-0.52344 -0.29297,-0.71094c-0.94141,-0.94141 -1.375,-1.44141 -1.375,-3.15625c0,-0.22656 0.12109,-0.6875 0.26172,-1.04687c0.14453,-0.35937 0.28125,-0.60547 0.28125,-0.60547c0.17969,-0.32812 0.16406,-0.73047 -0.04297,-1.03906c-0.20703,-0.3125 -0.57422,-0.48047 -0.94531,-0.44141c-0.49219,0.05859 -1.22266,-0.00391 -1.88672,-0.00391c-2.92578,0 -4.83984,-1.08984 -6.12109,-2.625c-1.27734,-1.53125 -1.87891,-3.56641 -1.87891,-5.375c0,-1.23828 0.24609,-3.77734 1.82031,-5.92969c1.57422,-2.15234 4.46094,-4.07031 10.28516,-4.07031zM22.56641,5c-2.21094,0 -3.70703,1.27734 -4.45312,2.64063c-0.74609,1.36328 -0.91016,2.77734 -0.91016,3.60938c0,2.46875 0.76172,4.83594 2.01953,6.64063c1.25781,1.80859 3.08203,3.10938 5.18359,3.10938c2.55859,0 4.07031,-1.49609 4.65234,-2.94141c0.28906,-0.72266 0.39844,-1.42187 0.44141,-1.97656c0.04688,-0.55469 0.02734,-1.05078 0.02734,-1.04687c0,-1.16406 -0.30078,-3.44922 -1.26953,-5.64453c-0.48437,-1.09766 -1.14062,-2.16797 -2.07422,-3c-0.93359,-0.82812 -2.17187,-1.39062 -3.61719,-1.39062zM22.56641,7c0.94922,0 1.65234,0.32422 2.28906,0.88672c0.63281,0.5625 1.16797,1.39062 1.57031,2.3125c0.8125,1.83594 1.10156,4.07422 1.10156,4.83594c0,0.23047 0.01563,0.46484 -0.01953,0.88672c-0.03516,0.41797 -0.12109,0.92969 -0.30469,1.39063c-0.375,0.92578 -0.91797,1.6875 -2.79687,1.6875c-1.26172,0 -2.54297,-0.81641 -3.54297,-2.25c-1,-1.4375 -1.66016,-3.44922 -1.66016,-5.5c0,-0.51172 0.15625,-1.72266 0.66406,-2.64844c0.50781,-0.92578 1.19141,-1.60156 2.69922,-1.60156zM24.92969,30.91016c0.26563,0.00781 0.53125,0.02344 0.75781,0.05859c1.80469,1.34375 4.3125,3.12891 4.3125,5.93359c0,0.58594 -0.19922,1.62891 -0.91016,2.58594c-0.71094,0.95703 -1.92969,1.89844 -4.1875,2.35156c0,-0.00391 0,-0.00391 0,0c-1.76562,0.35156 -4.13672,0.15625 -5.92578,-0.66406c-1.78906,-0.81641 -2.96094,-2.0625 -2.94531,-4.13281c0.00391,-0.875 0.25,-2.14453 1.23438,-3.30469c0.98047,-1.16016 2.73828,-2.28125 6.00391,-2.75c0.01172,0 0.01953,-0.00391 0.02734,-0.00391c0,0 0.83203,-0.08984 1.63281,-0.07422z"></path></g></g></svg>