<?xml version="1.0" encoding="utf-8"?>
<!-- Generator: Adobe Illustrator 27.7.0, SVG Export Plug-In . SVG Version: 6.00 Build 0)  -->
<svg version="1.1" id="Layer_1" xmlns="http://www.w3.org/2000/svg" xmlns:xlink="http://www.w3.org/1999/xlink" x="0px" y="0px"
	 viewBox="0 0 512 512" style="enable-background:new 0 0 512 512;" xml:space="preserve">
<g>
	<path d="M256,284.44c78.56-0.02,142.2-63.66,142.22-142.22C398.2,63.66,334.56,0.02,256,0c-78.56,0.02-142.2,63.66-142.22,142.22
		c0,15.71,12.74,28.44,28.44,28.44c15.71,0,28.44-12.74,28.44-28.44c0.09-47.12,38.22-85.25,85.33-85.33
		c47.12,0.09,85.25,38.22,85.33,85.33c-0.09,47.12-38.22,85.25-85.33,85.33c-15.71,0-28.44,12.74-28.44,28.44
		C227.56,271.71,240.29,284.44,256,284.44L256,284.44z"/>
	<path d="M113.78,369.78C113.8,448.34,177.44,511.98,256,512c78.56-0.02,142.2-63.66,142.22-142.22
		c-0.02-78.56-63.66-142.2-142.22-142.22c-15.71,0-28.44,12.74-28.44,28.44c0,15.71,12.74,28.44,28.44,28.44
		c47.12,0.09,85.25,38.22,85.33,85.33c-0.09,47.12-38.22,85.25-85.33,85.33c-47.12-0.09-85.25-38.22-85.33-85.33
		c0-15.71-12.74-28.44-28.44-28.44C126.51,341.33,113.78,354.07,113.78,369.78L113.78,369.78z"/>
</g>
</svg>
