<?xml version="1.0" encoding="utf-8"?>
<!-- Generator: Adobe Illustrator 27.7.0, SVG Export Plug-In . SVG Version: 6.00 Build 0)  -->
<svg version="1.1" id="Layer_1" xmlns="http://www.w3.org/2000/svg" xmlns:xlink="http://www.w3.org/1999/xlink" x="0px" y="0px"
	 viewBox="0 0 512 512" style="enable-background:new 0 0 512 512;" xml:space="preserve">
<g>
	<path d="M170.67,142.22c0.09-47.12,38.22-85.25,85.33-85.33c47.12,0.09,85.25,38.22,85.33,85.33c-0.01,10.69-2.69,20.87-7.53,31.42
		c-4.82,10.51-11.86,21.13-19.71,31.53l-0.09,0.12L119.42,466.56c-6.45,8.66-7.45,20.11-2.61,29.75
		c4.84,9.65,14.62,15.68,25.42,15.68h227.56c15.71,0,28.44-12.74,28.44-28.44s-12.74-28.44-28.44-28.44h-170.9l160.75-215.83
		l-0.09,0.12c9.07-12.06,18.52-25.87,25.95-41.97c7.41-16.05,12.76-34.68,12.74-55.22C398.21,63.66,334.57,0.02,256.01,0
		c-78.56,0.02-142.2,63.66-142.22,142.22c0,15.71,12.74,28.44,28.44,28.44C157.94,170.67,170.67,157.93,170.67,142.22L170.67,142.22
		z"/>
</g>
</svg>
