<svg xmlns="http://www.w3.org/2000/svg" xmlns:xlink="http://www.w3.org/1999/xlink" viewBox="0,0,256,256" width="20px" height="20px"><g fill="#ffffff" fill-rule="nonzero" stroke="none" stroke-width="1" stroke-linecap="butt" stroke-linejoin="miter" stroke-miterlimit="10" stroke-dasharray="" stroke-dashoffset="0" font-family="none" font-weight="none" font-size="none" text-anchor="none" style="mix-blend-mode: normal"><g transform="scale(5.12,5.12)"><path d="M26.10547,2c-6.28125,0 -9.94922,2.22266 -11.89844,4.89063c-1.94922,2.66797 -2.20703,5.62891 -2.20703,7.10938c0,2.24219 0.71484,4.70313 2.34375,6.65625c1.62891,1.95703 4.21484,3.34375 7.65625,3.34375c0.13672,0 0.41016,-0.00781 0.58984,0c-0.11328,0.35938 -0.25781,0.6875 -0.25781,1.13672c0,1.28906 0.35938,2.23438 0.83984,3.05078c-3.10156,0.19531 -6.28906,0.83203 -8.93359,2.26563c-3.16406,1.71484 -5.58203,4.52734 -5.58203,8.30078c0,1.51953 0.61719,3.79688 2.59375,5.75781c1.97656,1.96094 5.28906,3.48828 10.44531,3.48828c11.73438,0 15.75,-7.41016 15.75,-11.91016c0,-4.09375 -2.25391,-6.62109 -4.30078,-8.35937c-1.02344,-0.87109 -2.00391,-1.58594 -2.66016,-2.22656c-0.66016,-0.64062 -0.93359,-1.10937 -0.93359,-1.59375c0,-0.63281 0.21875,-1.05859 0.68359,-1.60937c0.46484,-0.54687 1.18359,-1.14062 1.95703,-1.88281c1.54688,-1.48828 3.25,-3.71094 3.25,-7.52734c0,-2.70312 -0.91406,-4.62891 -2.01562,-5.89062h0.57422c0.26563,0 0.51953,-0.10547 0.70703,-0.29297l3,-3c0.28516,-0.28516 0.37109,-0.71484 0.21484,-1.08984c-0.15234,-0.375 -0.51562,-0.61719 -0.92187,-0.61719zM22.56641,6c4.78906,0 5.96094,7.10547 5.96094,9.03516c0,0.44922 0.31641,4.96484 -4.12109,4.96484c-3.36328,0 -6.20312,-4.22656 -6.20312,-8.75c0,-1.34375 0.64453,-5.25 4.36328,-5.25zM25.42578,29.90234c0.22656,0.01953 0.44531,0.04688 0.65234,0.09766c1.75781,1.3125 4.92188,3.39453 4.92188,6.90234c-0.00391,1.58594 -0.98437,4.92969 -5.90234,5.91406c-3.97656,0.80078 -10.09766,-0.81641 -10.06641,-5.78125c0.00781,-2.04297 1.14453,-5.76562 7.40234,-6.91016c0.00391,-0.00391 0.00781,-0.00391 0.00781,-0.00391c0.85938,-0.08984 1.71484,-0.12891 2.54688,-0.12109c0.15234,0 0.30469,-0.03125 0.4375,-0.09766z"></path></g></g></svg>